<?xml version="1.0" encoding="UTF-8"?><svg width="16px" height="16px" viewBox="0 0 16 16" version="1.1" xmlns="http://www.w3.org/2000/svg" xmlns:xlink="http://www.w3.org/1999/xlink"><!--Generator: Sketch 58 (84663) - https://sketch.com--><title>question-circle-default@4x</title><desc>Created with Sketch.</desc><g id="页面-1" stroke="none" stroke-width="1" fill="none" fill-rule="evenodd" fill-opacity="0.45"><g id="切图" transform="translate(-143.000000, -29.000000)" fill="#000000"><g id="question-circle备份" transform="translate(143.000000, 29.000000)"><path d="M8,1 C11.865625,1 15,4.134375 15,8 C15,11.865625 11.865625,15 8,15 C4.134375,15 1,11.865625 1,8 C1,4.134375 4.134375,1 8,1 Z M8,2.1875 C4.790625,2.1875 2.1875,4.790625 2.1875,8 C2.1875,11.209375 4.790625,13.8125 8,13.8125 C11.209375,13.8125 13.8125,11.209375 13.8125,8 C13.8125,4.790625 11.209375,2.1875 8,2.1875 Z M8,10.8125 C8.34517797,10.8125 8.625,11.092322 8.625,11.4375 C8.625,11.782678 8.34517797,12.0625 8,12.0625 C7.65482203,12.0625 7.375,11.782678 7.375,11.4375 C7.375,11.092322 7.65482203,10.8125 8,10.8125 Z M8,4.3125 C8.65625,4.3125 9.275,4.5375 9.74375,4.9484375 C10.23125,5.375 10.5,5.9484375 10.4984443,6.5625 C10.4984443,7.465625 9.903125,8.278125 8.98125,8.6328125 C8.72430556,8.73142361 8.54266975,8.96460262 8.5054784,9.23138932 L8.4984375,9.3328125 L8.4984375,9.6875 C8.4984375,9.7425 8.4624375,9.7895 8.4128375,9.8061 L8.3734375,9.8125 L7.6234375,9.8125 C7.5684375,9.8125 7.5214375,9.7765 7.5048375,9.7269 L7.4984375,9.6875 L7.4984375,9.3515625 C7.4984375,8.990625 7.6046875,8.634375 7.809375,8.3375 C8.0109375,8.046875 8.2921875,7.825 8.6234375,7.6984375 C9.15625,7.49375 9.5,7.0484375 9.5,6.5625 C9.5,5.8734375 8.8265625,5.3125 8,5.3125 C7.22205882,5.3125 6.57975779,5.80938581 6.5068848,6.44231885 L6.5,6.5625 L6.5,6.68125 C6.5,6.73625 6.464,6.78325 6.4144,6.79985 L6.375,6.80625 L5.625,6.80625 C5.57,6.80625 5.523,6.77025 5.5064,6.72065 L5.5,6.68125 L5.5,6.5625 C5.5,5.9484375 5.76875,5.375 6.25625,4.9484375 C6.725,4.5390625 7.34375,4.3125 8,4.3125 Z" id="形状结合"/></g></g></g></svg>